<?xml version="1.0" encoding="utf-8"?>
<!-- Generator: Adobe Illustrator 26.0.1, SVG Export Plug-In . SVG Version: 6.00 Build 0)  -->
<svg version="1.1" id="Layer_1" xmlns="http://www.w3.org/2000/svg" xmlns:xlink="http://www.w3.org/1999/xlink" x="0px" y="0px"
	 viewBox="0 0 2000 2000" style="enable-background:new 0 0 2000 2000;" xml:space="preserve">
<style type="text/css">
	.st0{fill:#010202;}
</style>
<path class="st0" d="M1546.08,0c161.01,147.63,262.01,359.65,262.18,595.27h-327.8c-0.33-265.07-215.3-479.85-480.45-479.85
	c-265.35,0-480.45,215.11-480.45,480.45c0,265.15,214.78,480.12,479.85,480.45v327.8c-446.11-0.33-807.66-362.07-807.66-808.25
	c0-235.86,101.04-448.12,262.18-595.87H0v2000h453.92c-161.01-147.63-262.01-359.65-262.18-595.27h327.8
	c0.33,265.07,215.3,479.85,480.45,479.85c265.35,0,480.45-215.11,480.45-480.45c0-265.15-214.78-480.12-479.85-480.45v-327.8
	c446.11,0.33,807.65,362.07,807.65,808.25c0,235.86-101.04,448.12-262.18,595.87H2000V0H1546.08z"/>
</svg>
